stateDiagram-v2
	s0: commandeCL(X, Y)
	s1: commandeC(X, Y), labelling([X, Y])
	s2: X #∶∶ 5000..10000, Y #∶∶ 9000..20000, X #>= Y, labelling([X, Y])
	s3: Y #∶∶ 9000..20000, X{5000..10000} #>= Y, labelling([X{5000..10000}, Y])
	s4: X{5000..10000} #>= Y{9000..20000}, labelling([X{5000..10000}, Y{9000..20000}])
	s5: Y{9000..20000} - X{5000..10000} #<= 0, labelling([X{5000..10000}, Y{9000..20000}])
	s6: Y{9000..10000} - X{9000..10000} #<= 0, labelling([X{9000..10000}, Y{9000..10000}])
	s7: labelling([X{9000..10000}, Y{9000..10000}])
	s81: Y{9000..10000} - 9000 #<= 0
	s82: 9000 - 9000 #<= 0
	s83: Ø
	s91: Y{9000..10000} - 9001 #<= 0
	s92: 9000 - 9001 #<= 0
	s93: Ø
	s10: ...
	s0 --> s1
	s1 --> s2
	s2 --> s3 : X{5000..10000}
	s3 --> s4 : Y{9000..20000}
	s4 --> s5
	s5 --> s6 : X{9000..10000}, Y{9000..10000}
	note right of s6 : DELAYED
	s6 --> s7
	s7 --> s81 : X = 9000
	note right of s81 : RESUME
	s81 --> s82 : Y = 9000
	s82 --> s83
	note right of s83 : X = 9000, Y = 9000
	s7 --> s91 : X = 9001
	note right of s91 : RESUME
	s91 --> s92 : Y = 9000
	s92 --> s93
	note right of s93 : X = 9001, Y = 9000
	s7 --> s10
            
